<svg xmlns="http://www.w3.org/2000/svg" xmlns:xlink="http://www.w3.org/1999/xlink" width="500" zoomAndPan="magnify" viewBox="0 0 375 374.999991" height="500" preserveAspectRatio="xMidYMid meet" version="1.0"><defs><clipPath id="59e5ea01d5"><path d="M 110.996094 23.167969 L 337.5 23.167969 L 337.5 363 L 110.996094 363 Z M 110.996094 23.167969 " clip-rule="nonzero"/></clipPath><clipPath id="99d076ba62"><path d="M 131.996094 23.167969 L 316.5 23.167969 C 328.097656 23.167969 337.5 32.570312 337.5 44.167969 L 337.5 342.277344 C 337.5 353.875 328.097656 363.277344 316.5 363.277344 L 131.996094 363.277344 C 120.398438 363.277344 110.996094 353.875 110.996094 342.277344 L 110.996094 44.167969 C 110.996094 32.570312 120.398438 23.167969 131.996094 23.167969 Z M 131.996094 23.167969 " clip-rule="nonzero"/></clipPath><clipPath id="7d203acac8"><path d="M 136.980469 52.375 L 311.515625 52.375 L 311.515625 334 L 136.980469 334 Z M 136.980469 52.375 " clip-rule="nonzero"/></clipPath><clipPath id="d00f5217fc"><path d="M 154.230469 52.375 L 294.265625 52.375 C 298.839844 52.375 303.230469 54.191406 306.464844 57.425781 C 309.699219 60.664062 311.515625 65.050781 311.515625 69.625 L 311.515625 316.820312 C 311.515625 321.394531 309.699219 325.78125 306.464844 329.015625 C 303.230469 332.253906 298.839844 334.070312 294.265625 334.070312 L 154.230469 334.070312 C 149.65625 334.070312 145.265625 332.253906 142.03125 329.015625 C 138.796875 325.78125 136.980469 321.394531 136.980469 316.820312 L 136.980469 69.625 C 136.980469 65.050781 138.796875 60.664062 142.03125 57.425781 C 145.265625 54.191406 149.65625 52.375 154.230469 52.375 Z M 154.230469 52.375 " clip-rule="nonzero"/></clipPath><clipPath id="76117676fd"><path d="M 86.195312 101.632812 L 260.882812 101.632812 L 260.882812 169.289062 L 86.195312 169.289062 Z M 86.195312 101.632812 " clip-rule="nonzero"/></clipPath><clipPath id="1046271a92"><path d="M 103.445312 101.632812 L 243.480469 101.632812 C 248.058594 101.632812 252.445312 103.453125 255.679688 106.6875 C 258.914062 109.921875 260.730469 114.308594 260.730469 118.882812 L 260.730469 152.039062 C 260.730469 156.613281 258.914062 161.003906 255.679688 164.238281 C 252.445312 167.472656 248.058594 169.289062 243.480469 169.289062 L 103.445312 169.289062 C 98.871094 169.289062 94.484375 167.472656 91.25 164.238281 C 88.011719 161.003906 86.195312 156.613281 86.195312 152.039062 L 86.195312 118.882812 C 86.195312 114.308594 88.011719 109.921875 91.25 106.6875 C 94.484375 103.453125 98.871094 101.632812 103.445312 101.632812 Z M 103.445312 101.632812 " clip-rule="nonzero"/></clipPath><clipPath id="f369dc62ca"><path d="M 81.996094 203.714844 L 256.683594 203.714844 L 256.683594 271.371094 L 81.996094 271.371094 Z M 81.996094 203.714844 " clip-rule="nonzero"/></clipPath><clipPath id="58a444eb97"><path d="M 99.246094 203.714844 L 239.28125 203.714844 C 243.855469 203.714844 248.246094 205.53125 251.480469 208.769531 C 254.714844 212.003906 256.53125 216.390625 256.53125 220.964844 L 256.53125 254.121094 C 256.53125 258.695312 254.714844 263.082031 251.480469 266.320312 C 248.246094 269.554688 243.855469 271.371094 239.28125 271.371094 L 99.246094 271.371094 C 94.671875 271.371094 90.28125 269.554688 87.046875 266.320312 C 83.8125 263.082031 81.996094 258.695312 81.996094 254.121094 L 81.996094 220.964844 C 81.996094 216.390625 83.8125 212.003906 87.046875 208.769531 C 90.28125 205.53125 94.671875 203.714844 99.246094 203.714844 Z M 99.246094 203.714844 " clip-rule="nonzero"/></clipPath><clipPath id="2ecf596ee3"><path d="M 23 137.8125 L 245.09375 137.8125 L 245.09375 234.238281 L 23 234.238281 Z M 23 137.8125 " clip-rule="nonzero"/></clipPath><clipPath id="b27e7b38f8"><path d="M 23.167969 186.023438 L 79.417969 234.238281 L 79.417969 206.113281 L 245.09375 206.113281 L 245.09375 165.9375 L 79.417969 165.9375 L 79.417969 137.8125 Z M 23.167969 186.023438 " clip-rule="nonzero"/></clipPath></defs><g clip-path="url(#59e5ea01d5)"><g clip-path="url(#99d076ba62)"><path fill="#919191" d="M 110.996094 23.167969 L 337.5 23.167969 L 337.5 362.925781 L 110.996094 362.925781 Z M 110.996094 23.167969 " fill-opacity="1" fill-rule="nonzero"/></g></g><g clip-path="url(#7d203acac8)"><g clip-path="url(#d00f5217fc)"><path fill="#ffffff" d="M 136.980469 52.375 L 311.515625 52.375 L 311.515625 333.949219 L 136.980469 333.949219 Z M 136.980469 52.375 " fill-opacity="1" fill-rule="nonzero"/></g></g><g clip-path="url(#76117676fd)"><g clip-path="url(#1046271a92)"><path fill="#ffffff" d="M 86.195312 101.632812 L 260.621094 101.632812 L 260.621094 169.289062 L 86.195312 169.289062 Z M 86.195312 101.632812 " fill-opacity="1" fill-rule="nonzero"/></g></g><g clip-path="url(#f369dc62ca)"><g clip-path="url(#58a444eb97)"><path fill="#ffffff" d="M 81.996094 203.714844 L 256.421875 203.714844 L 256.421875 271.371094 L 81.996094 271.371094 Z M 81.996094 203.714844 " fill-opacity="1" fill-rule="nonzero"/></g></g><g clip-path="url(#2ecf596ee3)"><g clip-path="url(#b27e7b38f8)"><path fill="#919191" d="M 245.09375 234.238281 L 23.234375 234.238281 L 23.234375 137.8125 L 245.09375 137.8125 Z M 245.09375 234.238281 " fill-opacity="1" fill-rule="nonzero"/></g></g></svg>