<svg xmlns="http://www.w3.org/2000/svg" xmlns:xlink="http://www.w3.org/1999/xlink" width="500" zoomAndPan="magnify" viewBox="0 0 375 374.999991" height="500" preserveAspectRatio="xMidYMid meet" version="1.0"><defs><clipPath id="4115fe81d5"><path d="M 98.84375 5.28125 L 276.589844 5.28125 L 276.589844 183.027344 L 98.84375 183.027344 Z M 98.84375 5.28125 " clip-rule="nonzero"/></clipPath><clipPath id="7293d75bda"><path d="M 187.714844 5.28125 C 138.632812 5.28125 98.84375 45.070312 98.84375 94.15625 C 98.84375 143.238281 138.632812 183.027344 187.714844 183.027344 C 236.800781 183.027344 276.589844 143.238281 276.589844 94.15625 C 276.589844 45.070312 236.800781 5.28125 187.714844 5.28125 Z M 187.714844 5.28125 " clip-rule="nonzero"/></clipPath><clipPath id="ef9f85f5a5"><path d="M 13.246094 197.445312 L 362.1875 197.445312 L 362.1875 375 L 13.246094 375 Z M 13.246094 197.445312 " clip-rule="nonzero"/></clipPath><clipPath id="9538e2314b"><path d="M 187.714844 197.445312 C 91.359375 197.445312 13.246094 275.558594 13.246094 371.917969 C 13.246094 468.277344 91.359375 546.390625 187.714844 546.390625 C 284.074219 546.390625 362.1875 468.277344 362.1875 371.917969 C 362.1875 275.558594 284.074219 197.445312 187.714844 197.445312 Z M 187.714844 197.445312 " clip-rule="nonzero"/></clipPath><clipPath id="bc36e14f34"><path d="M 0 363.519531 L 375 363.519531 L 375 375 L 0 375 Z M 0 363.519531 " clip-rule="nonzero"/></clipPath></defs><g clip-path="url(#4115fe81d5)"><g clip-path="url(#7293d75bda)"><path fill="#919191" d="M 98.84375 5.28125 L 276.589844 5.28125 L 276.589844 183.027344 L 98.84375 183.027344 Z M 98.84375 5.28125 " fill-opacity="1" fill-rule="nonzero"/></g></g><g clip-path="url(#ef9f85f5a5)"><g clip-path="url(#9538e2314b)"><path fill="#919191" d="M 13.246094 197.445312 L 362.1875 197.445312 L 362.1875 546.390625 L 13.246094 546.390625 Z M 13.246094 197.445312 " fill-opacity="1" fill-rule="nonzero"/></g></g><g clip-path="url(#bc36e14f34)"><path fill="#ffffff" d="M 0 363.519531 L 380.027344 363.519531 L 380.027344 546.390625 L 0 546.390625 Z M 0 363.519531 " fill-opacity="1" fill-rule="nonzero"/></g></svg>