<svg xmlns="http://www.w3.org/2000/svg" xmlns:xlink="http://www.w3.org/1999/xlink" width="500" zoomAndPan="magnify" viewBox="0 0 375 374.999991" height="500" preserveAspectRatio="xMidYMid meet" version="1.0"><defs><clipPath id="7df7b0e3b4"><path d="M 61.613281 61.613281 L 313.386719 61.613281 L 313.386719 313.386719 L 61.613281 313.386719 Z M 61.613281 61.613281 " clip-rule="nonzero"/></clipPath><clipPath id="f6b146345a"><path d="M 187.5 61.613281 C 117.976562 61.613281 61.613281 117.976562 61.613281 187.5 C 61.613281 257.023438 117.976562 313.386719 187.5 313.386719 C 257.023438 313.386719 313.386719 257.023438 313.386719 187.5 C 313.386719 117.976562 257.023438 61.613281 187.5 61.613281 Z M 187.5 61.613281 " clip-rule="nonzero"/></clipPath><clipPath id="044f5b0015"><path d="M 159 12.25 L 215.839844 12.25 L 215.839844 362.742188 L 159 362.742188 Z M 159 12.25 " clip-rule="nonzero"/></clipPath><clipPath id="74ed9d8f5c"><path d="M 180.910156 12.472656 L 194.089844 12.472656 C 199.859375 12.472656 205.390625 14.765625 209.46875 18.84375 C 213.550781 22.921875 215.839844 28.453125 215.839844 34.222656 L 215.839844 340.777344 C 215.839844 346.546875 213.550781 352.078125 209.46875 356.15625 C 205.390625 360.234375 199.859375 362.527344 194.089844 362.527344 L 180.910156 362.527344 C 175.140625 362.527344 169.609375 360.234375 165.53125 356.15625 C 161.449219 352.078125 159.160156 346.546875 159.160156 340.777344 L 159.160156 34.222656 C 159.160156 28.453125 161.449219 22.921875 165.53125 18.84375 C 169.609375 14.765625 175.140625 12.472656 180.910156 12.472656 Z M 180.910156 12.472656 " clip-rule="nonzero"/></clipPath><clipPath id="115a2b51f5"><path d="M 12.25 159.160156 L 362.519531 159.160156 L 362.519531 215.84375 L 12.25 215.84375 Z M 12.25 159.160156 " clip-rule="nonzero"/></clipPath><clipPath id="ed7872f5ee"><path d="M 362.519531 187.503906 C 362.519531 203.15625 349.832031 215.84375 334.179688 215.84375 L 40.804688 215.84375 C 25.15625 215.84375 12.464844 203.15625 12.464844 187.503906 C 12.464844 171.851562 25.15625 159.160156 40.804688 159.160156 L 334.179688 159.160156 C 349.832031 159.160156 362.519531 171.851562 362.519531 187.503906 Z M 362.519531 187.503906 " clip-rule="nonzero"/></clipPath><clipPath id="0b4a6adcc3"><path d="M 52 52 L 323 52 L 323 323 L 52 323 Z M 52 52 " clip-rule="nonzero"/></clipPath><clipPath id="30ae3834c3"><path d="M 291.21875 43.386719 L 331.457031 83.621094 L 83.621094 331.457031 L 43.382812 291.222656 Z M 291.21875 43.386719 " clip-rule="nonzero"/></clipPath><clipPath id="de3ee98817"><path d="M 306.601562 59.078125 L 315.921875 68.398438 C 320 72.480469 322.289062 78.011719 322.289062 83.78125 C 322.289062 89.546875 320 95.082031 315.921875 99.160156 L 99.152344 315.925781 C 95.074219 320.003906 89.542969 322.296875 83.773438 322.296875 C 78.003906 322.296875 72.472656 320.003906 68.394531 315.925781 L 59.074219 306.605469 C 54.996094 302.527344 52.703125 296.996094 52.703125 291.226562 C 52.703125 285.457031 54.996094 279.925781 59.074219 275.847656 L 275.839844 59.078125 C 279.917969 55 285.453125 52.710938 291.21875 52.710938 C 296.988281 52.710938 302.519531 55 306.601562 59.078125 Z M 306.601562 59.078125 " clip-rule="nonzero"/></clipPath><clipPath id="1462ddda72"><path d="M 52 52 L 323 52 L 323 323 L 52 323 Z M 52 52 " clip-rule="nonzero"/></clipPath><clipPath id="02268dbe35"><path d="M 43.382812 83.773438 L 83.621094 43.535156 L 331.457031 291.371094 L 291.21875 331.609375 Z M 43.382812 83.773438 " clip-rule="nonzero"/></clipPath><clipPath id="18e5acf5a6"><path d="M 59.078125 68.394531 L 68.398438 59.074219 C 72.476562 54.992188 78.007812 52.703125 83.777344 52.703125 C 89.546875 52.703125 95.078125 54.992188 99.15625 59.074219 L 315.921875 275.839844 C 320.003906 279.917969 322.292969 285.449219 322.292969 291.21875 C 322.292969 296.988281 320.003906 302.519531 315.921875 306.597656 L 306.601562 315.917969 C 302.523438 320 296.992188 322.289062 291.222656 322.289062 C 285.453125 322.289062 279.921875 320 275.84375 315.917969 L 59.078125 99.152344 C 54.996094 95.074219 52.707031 89.542969 52.707031 83.773438 C 52.707031 78.003906 54.996094 72.472656 59.078125 68.394531 Z M 59.078125 68.394531 " clip-rule="nonzero"/></clipPath><clipPath id="40c4d9f7cc"><path d="M 92.375 92.375 L 282.625 92.375 L 282.625 282.625 L 92.375 282.625 Z M 92.375 92.375 " clip-rule="nonzero"/></clipPath><clipPath id="6951bf87a4"><path d="M 187.5 92.375 C 134.964844 92.375 92.375 134.964844 92.375 187.5 C 92.375 240.035156 134.964844 282.625 187.5 282.625 C 240.035156 282.625 282.625 240.035156 282.625 187.5 C 282.625 134.964844 240.035156 92.375 187.5 92.375 Z M 187.5 92.375 " clip-rule="nonzero"/></clipPath><clipPath id="2040aaaa20"><path d="M 113.753906 113.753906 L 261.246094 113.753906 L 261.246094 261.246094 L 113.753906 261.246094 Z M 113.753906 113.753906 " clip-rule="nonzero"/></clipPath><clipPath id="c6ab619b4e"><path d="M 187.5 113.753906 C 146.769531 113.753906 113.753906 146.769531 113.753906 187.5 C 113.753906 228.230469 146.769531 261.246094 187.5 261.246094 C 228.230469 261.246094 261.246094 228.230469 261.246094 187.5 C 261.246094 146.769531 228.230469 113.753906 187.5 113.753906 Z M 187.5 113.753906 " clip-rule="nonzero"/></clipPath></defs><g clip-path="url(#7df7b0e3b4)"><g clip-path="url(#f6b146345a)"><path fill="#919191" d="M 61.613281 61.613281 L 313.386719 61.613281 L 313.386719 313.386719 L 61.613281 313.386719 Z M 61.613281 61.613281 " fill-opacity="1" fill-rule="nonzero"/></g></g><g clip-path="url(#044f5b0015)"><g clip-path="url(#74ed9d8f5c)"><path fill="#919191" d="M 159.160156 12.472656 L 215.839844 12.472656 L 215.839844 362.523438 L 159.160156 362.523438 Z M 159.160156 12.472656 " fill-opacity="1" fill-rule="nonzero"/></g></g><g clip-path="url(#115a2b51f5)"><g clip-path="url(#ed7872f5ee)"><path fill="#919191" d="M 362.519531 159.160156 L 362.519531 215.84375 L 12.46875 215.84375 L 12.46875 159.160156 Z M 362.519531 159.160156 " fill-opacity="1" fill-rule="nonzero"/></g></g><g clip-path="url(#0b4a6adcc3)"><g clip-path="url(#30ae3834c3)"><g clip-path="url(#de3ee98817)"><path fill="#919191" d="M 291.21875 43.699219 L 331.300781 83.78125 L 83.777344 331.300781 L 43.699219 291.222656 Z M 291.21875 43.699219 " fill-opacity="1" fill-rule="nonzero"/></g></g></g><g clip-path="url(#1462ddda72)"><g clip-path="url(#02268dbe35)"><g clip-path="url(#18e5acf5a6)"><path fill="#919191" d="M 43.695312 83.773438 L 83.777344 43.691406 L 331.300781 291.214844 L 291.21875 331.296875 Z M 43.695312 83.773438 " fill-opacity="1" fill-rule="nonzero"/></g></g></g><g clip-path="url(#40c4d9f7cc)"><g clip-path="url(#6951bf87a4)"><path fill="#737373" d="M 92.375 92.375 L 282.625 92.375 L 282.625 282.625 L 92.375 282.625 Z M 92.375 92.375 " fill-opacity="1" fill-rule="nonzero"/></g></g><g clip-path="url(#2040aaaa20)"><g clip-path="url(#c6ab619b4e)"><path fill="#ffffff" d="M 113.753906 113.753906 L 261.246094 113.753906 L 261.246094 261.246094 L 113.753906 261.246094 Z M 113.753906 113.753906 " fill-opacity="1" fill-rule="nonzero"/></g></g></svg>