<svg xmlns="http://www.w3.org/2000/svg" xmlns:xlink="http://www.w3.org/1999/xlink" width="500" zoomAndPan="magnify" viewBox="0 0 375 374.999991" height="500" preserveAspectRatio="xMidYMid meet" version="1.0"><defs><clipPath id="a4df16c318"><path d="M 20.492188 33.945312 L 347.746094 33.945312 L 347.746094 361.199219 L 20.492188 361.199219 Z M 20.492188 33.945312 " clip-rule="nonzero"/></clipPath><clipPath id="3b52397d3c"><path d="M 184.121094 33.945312 C 93.75 33.945312 20.492188 107.203125 20.492188 197.570312 C 20.492188 287.941406 93.75 361.199219 184.121094 361.199219 C 274.488281 361.199219 347.746094 287.941406 347.746094 197.570312 C 347.746094 107.203125 274.488281 33.945312 184.121094 33.945312 Z M 184.121094 33.945312 " clip-rule="nonzero"/></clipPath><clipPath id="712b6d4e09"><path d="M 44.542969 57.996094 L 323.695312 57.996094 L 323.695312 337.148438 L 44.542969 337.148438 Z M 44.542969 57.996094 " clip-rule="nonzero"/></clipPath><clipPath id="3c8a95f472"><path d="M 184.121094 57.996094 C 107.03125 57.996094 44.542969 120.484375 44.542969 197.570312 C 44.542969 274.65625 107.03125 337.148438 184.121094 337.148438 C 261.207031 337.148438 323.695312 274.65625 323.695312 197.570312 C 323.695312 120.484375 261.207031 57.996094 184.121094 57.996094 Z M 184.121094 57.996094 " clip-rule="nonzero"/></clipPath><clipPath id="0d7dc9b901"><path d="M 167.519531 90.597656 L 200.71875 90.597656 L 200.71875 134.429688 L 167.519531 134.429688 Z M 167.519531 90.597656 " clip-rule="nonzero"/></clipPath><clipPath id="0a518752d2"><path d="M 184.121094 90.597656 C 193.285156 90.597656 200.71875 98.03125 200.71875 107.195312 L 200.71875 117.703125 C 200.71875 126.871094 193.285156 134.300781 184.121094 134.300781 C 174.953125 134.300781 167.519531 126.871094 167.519531 117.703125 L 167.519531 107.195312 C 167.519531 98.03125 174.953125 90.597656 184.121094 90.597656 Z M 184.121094 90.597656 " clip-rule="nonzero"/></clipPath><clipPath id="0914628023"><path d="M 167.519531 170.945312 L 200.71875 170.945312 L 200.71875 303.46875 L 167.519531 303.46875 Z M 167.519531 170.945312 " clip-rule="nonzero"/></clipPath><clipPath id="18467051a4"><path d="M 184.121094 170.945312 C 193.285156 170.945312 200.71875 178.375 200.71875 187.542969 L 200.71875 286.851562 C 200.71875 296.019531 193.285156 303.449219 184.121094 303.449219 C 174.953125 303.449219 167.519531 296.019531 167.519531 286.851562 L 167.519531 187.542969 C 167.519531 178.375 174.953125 170.945312 184.121094 170.945312 Z M 184.121094 170.945312 " clip-rule="nonzero"/></clipPath><clipPath id="947e6a3303"><path d="M 0 90.597656 L 78.105469 90.597656 L 78.105469 187.5 L 0 187.5 Z M 0 90.597656 " clip-rule="nonzero"/></clipPath><clipPath id="b9cc35ac3a"><path d="M 6 120 L 59 120 L 59 205 L 6 205 Z M 6 120 " clip-rule="nonzero"/></clipPath><clipPath id="517dcd16f9"><path d="M 30.210938 112.453125 L 82.871094 129.378906 L 58.867188 204.046875 L 6.207031 187.121094 Z M 30.210938 112.453125 " clip-rule="nonzero"/></clipPath><clipPath id="1e8c74b145"><path d="M 56.539062 120.917969 L 58.871094 204.03125 L 6.214844 187.101562 Z M 56.539062 120.917969 " clip-rule="nonzero"/></clipPath></defs><g clip-path="url(#a4df16c318)"><g clip-path="url(#3b52397d3c)"><path fill="#919191" d="M 20.492188 33.945312 L 347.746094 33.945312 L 347.746094 361.199219 L 20.492188 361.199219 Z M 20.492188 33.945312 " fill-opacity="1" fill-rule="nonzero"/></g></g><g clip-path="url(#712b6d4e09)"><g clip-path="url(#3c8a95f472)"><path fill="#ffffff" d="M 44.542969 57.996094 L 323.695312 57.996094 L 323.695312 337.148438 L 44.542969 337.148438 Z M 44.542969 57.996094 " fill-opacity="1" fill-rule="nonzero"/></g></g><g clip-path="url(#0d7dc9b901)"><g clip-path="url(#0a518752d2)"><path fill="#919191" d="M 167.519531 90.597656 L 200.71875 90.597656 L 200.71875 134.296875 L 167.519531 134.296875 Z M 167.519531 90.597656 " fill-opacity="1" fill-rule="nonzero"/></g></g><g clip-path="url(#0914628023)"><g clip-path="url(#18467051a4)"><path fill="#919191" d="M 167.519531 170.945312 L 200.71875 170.945312 L 200.71875 303.46875 L 167.519531 303.46875 Z M 167.519531 170.945312 " fill-opacity="1" fill-rule="nonzero"/></g></g><g clip-path="url(#947e6a3303)"><path fill="#ffffff" d="M -2.679688 90.597656 L 78.105469 90.597656 L 78.105469 187.476562 L -2.679688 187.476562 Z M -2.679688 90.597656 " fill-opacity="1" fill-rule="nonzero"/></g><g clip-path="url(#b9cc35ac3a)"><g clip-path="url(#517dcd16f9)"><g clip-path="url(#1e8c74b145)"><path fill="#919191" d="M 30.210938 112.453125 L 82.871094 129.378906 L 58.867188 204.046875 L 6.207031 187.121094 Z M 30.210938 112.453125 " fill-opacity="1" fill-rule="nonzero"/></g></g></g></svg>